<?xml version="1.0" standalone="no"?>
<!DOCTYPE svg PUBLIC "-//W3C//DTD SVG 20010904//EN"
 "http://www.w3.org/TR/2001/REC-SVG-20010904/DTD/svg10.dtd">
<svg version="1.0" xmlns="http://www.w3.org/2000/svg"
 width="512.000000pt" height="512.000000pt" viewBox="0 0 512.000000 512.000000"
 preserveAspectRatio="xMidYMid meet">
<metadata>
Created by potrace 1.14, written by Peter Selinger 2001-2017
</metadata>
<g transform="translate(0.000000,512.000000) scale(0.100000,-0.100000)"
fill="#000000" stroke="none">
<path d="M1592 4895 c-202 -48 -352 -195 -403 -393 -15 -61 -19 -110 -19 -262
l0 -188 -130 0 c-72 0 -145 -4 -163 -8 -82 -17 -180 -105 -213 -190 -18 -46
-19 -80 -19 -499 0 -440 0 -451 22 -497 28 -62 91 -129 148 -157 55 -27 123
-37 258 -35 l97 0 0 -212 0 -213 -147 -3 c-134 -3 -153 -5 -198 -28 -64 -32
-128 -95 -157 -157 -23 -47 -23 -52 -26 -473 -3 -303 0 -441 8 -480 22 -98 82
-171 180 -218 50 -24 69 -27 198 -30 l142 -4 0 -82 c0 -268 173 -487 427 -541
100 -21 1825 -22 1925 0 203 43 365 202 412 405 11 48 14 167 13 590 -1 291 1
531 3 533 3 3 68 7 146 9 135 3 143 5 207 36 75 37 118 84 153 170 l24 57 -3
440 c-2 439 -2 440 -26 493 -13 28 -27 52 -31 52 -3 0 -12 10 -19 23 -16 30
-100 85 -157 102 -26 8 -93 13 -162 14 -64 0 -121 0 -127 0 -7 1 -10 229 -10
663 l0 663 -23 65 c-63 176 -221 319 -397 356 -87 19 -1855 18 -1933 -1z"/>
</g>
</svg>
